<svg xmlns="http://www.w3.org/2000/svg" viewBox="0 0 600 750" width="600" height="750">
<defs><linearGradient id="g" x1="0" y1="0" x2="1" y2="1"><stop offset="0" stop-color="#f7d6d6"/><stop offset="1" stop-color="#fbf0ea"/></linearGradient>
<pattern id="dots" width="18" height="18" patternUnits="userSpaceOnUse"><circle cx="2" cy="2" r="1.2" fill="#f13b3b" opacity=".18"/></pattern></defs>
<rect width="600" height="750" fill="url(#g)"/><rect width="600" height="750" fill="url(#dots)"/>
<g transform="translate(300.0,345.0) scale(2.4)"><g transform="translate(0,0)" fill="none" stroke="#c13535" stroke-width="3" stroke-linecap="round" stroke-linejoin="round"><circle cx="0" cy="-52" r="16"/><path d="M-28 30c0-24 12-40 28-40s28 16 28 40"/></g><path d="M-7 -48q7 8 14 0" fill="none" stroke="#c13535" stroke-width="2.5" stroke-linecap="round"/><g transform="translate(30,-30) rotate(-30)"><rect x="-6" y="-16" width="12" height="32" rx="6" fill="#f13b3b"/><rect x="-6" y="-16" width="12" height="16" rx="6" fill="#ff7a6e"/></g><g transform="translate(-34,-4)"><path d="M-12 -18h24l-3 40h-18z" fill="none" stroke="#c13535" stroke-width="3" stroke-linejoin="round"/><path d="M-9 2h18" stroke="#c13535" stroke-width="2"/></g></g>
<g font-family="Menlo,Consolas,monospace" text-anchor="middle">
<text x="300.0" y="668" font-size="13" letter-spacing="2" fill="#c13535">PHOTO PLACEHOLDER</text>
<text x="300.0" y="696" font-size="17" font-weight="bold" fill="#1a1113" font-family="Arial,Helvetica,sans-serif">Morning capsule with water</text>
<text x="300.0" y="726" font-size="13" fill="#6b5f62" font-family="Arial,Helvetica,sans-serif">Close-up, hand + capsule + glass · bright, clean · smiling out of focus · 4:5</text>
</g></svg>